<svg xmlns="http://www.w3.org/2000/svg" version="1.1" xmlns:xlink="http://www.w3.org/1999/xlink" width="214" height="214"><svg width="214" height="214" viewBox="0 0 214 214" fill="none" xmlns="http://www.w3.org/2000/svg">
<rect width="214" height="214" rx="32" fill="white"></rect>
<path d="M58.1462 153C50.8088 153 43.7215 152.162 36.8844 150.486C30.0472 148.811 24.4191 146.632 20 143.951L29.5053 122.333C33.6743 124.763 38.3018 126.732 43.388 128.24C48.5575 129.665 53.5603 130.377 58.3963 130.377C61.2312 130.377 63.4408 130.209 65.025 129.874C66.6926 129.455 67.9016 128.911 68.652 128.24C69.4025 127.486 69.7777 126.607 69.7777 125.601C69.7777 124.009 68.9022 122.752 67.1512 121.831C65.4002 120.909 63.0656 120.155 60.1473 119.568C57.3124 118.898 54.1857 118.228 50.7671 117.557C47.3485 116.803 43.8883 115.84 40.3863 114.667C36.9678 113.494 33.7993 111.944 30.881 110.016C28.0461 108.089 25.7532 105.576 24.0022 102.475C22.2513 99.2914 21.3758 95.3534 21.3758 90.6612C21.3758 85.2149 22.8766 80.2714 25.8783 75.8306C28.9633 71.306 33.5075 67.7031 39.5108 65.0219C45.5976 62.3406 53.1434 61 62.1484 61C68.0684 61 73.905 61.6284 79.6581 62.8852C85.4113 64.1421 90.5809 66.0692 95.1668 68.6667L86.2868 90.1585C81.9511 87.98 77.7404 86.3461 73.6548 85.2568C69.6526 84.1676 65.7337 83.623 61.8983 83.623C59.0634 83.623 56.8121 83.8743 55.1445 84.377C53.4769 84.8798 52.2679 85.5501 51.5175 86.388C50.8505 87.2259 50.517 88.1475 50.517 89.153C50.517 90.6612 51.3924 91.8761 53.1434 92.7978C54.8944 93.6357 57.1873 94.3479 60.0222 94.9344C62.9405 95.5209 66.109 96.1494 69.5275 96.8197C73.0295 97.49 76.4897 98.4117 79.9083 99.5847C83.3269 100.758 86.4536 102.308 89.2885 104.235C92.2068 106.162 94.5414 108.676 96.2924 111.776C98.0434 114.876 98.9189 118.73 98.9189 123.339C98.9189 128.701 97.3763 133.645 94.2913 138.169C91.2896 142.61 86.7871 146.213 80.7838 148.978C74.7804 151.659 67.2346 153 58.1462 153Z" fill="#2E2E2F"></path>
<path d="M107.702 150.989V63.0109H154.478C166.568 63.0109 175.49 65.1894 181.243 69.5465C186.996 73.8197 189.873 79.3078 189.873 86.0109C189.873 90.4517 188.622 94.4317 186.121 97.9508C183.703 101.386 180.159 104.109 175.49 106.12C170.82 108.131 165.067 109.137 158.23 109.137L160.732 102.35C167.569 102.35 173.447 103.313 178.366 105.24C183.369 107.168 187.205 109.974 189.873 113.661C192.624 117.264 194 121.621 194 126.732C194 134.357 190.832 140.306 184.495 144.579C178.241 148.852 169.069 150.989 156.979 150.989H107.702ZM136.718 130.251H154.478C157.73 130.251 160.148 129.665 161.732 128.492C163.4 127.319 164.233 125.601 164.233 123.339C164.233 121.077 163.4 119.359 161.732 118.186C160.148 117.013 157.73 116.426 154.478 116.426H134.717V96.8197H150.476C153.811 96.8197 156.229 96.275 157.73 95.1858C159.314 94.0127 160.106 92.3789 160.106 90.2842C160.106 88.1056 159.314 86.4718 157.73 85.3825C156.229 84.2933 153.811 83.7486 150.476 83.7486H136.718V130.251Z" fill="#2E2E2F"></path>
</svg><style>@media (prefers-color-scheme: light) { :root { filter: none; } }
@media (prefers-color-scheme: dark) { :root { filter: none; } }
</style></svg>