<svg width="339" height="339" viewBox="0 0 339 339" fill="none" xmlns="http://www.w3.org/2000/svg">
<rect width="339" height="339" fill="white"/>
<path d="M31 244.981V94.0192H98.1283C120.004 94.0192 136.804 99.0513 148.528 109.115C160.395 119.036 166.329 132.622 166.329 149.875C166.329 161.233 163.612 171.081 158.179 179.42C152.746 187.615 145.025 193.941 135.017 198.398C125.151 202.712 113.355 204.868 99.6296 204.868H54.5914L73.4645 186.968V244.981H31ZM123.864 244.981L86.5471 189.988H131.8L169.331 244.981H123.864ZM73.4645 191.497L54.5914 171.872H97.056C105.921 171.872 112.498 169.931 116.787 166.049C121.219 162.168 123.435 156.776 123.435 149.875C123.435 142.83 121.219 137.367 116.787 133.485C112.498 129.603 105.921 127.662 97.056 127.662H54.5914L73.4645 108.037V191.497Z" fill="#2E2E2F"/>
<path d="M242.515 248C230.219 248 218.352 246.49 206.914 243.471C195.618 240.308 186.396 236.283 179.247 231.394L193.188 199.908C199.908 204.221 207.628 207.815 216.35 210.691C225.215 213.423 234.008 214.788 242.73 214.788C248.592 214.788 253.31 214.285 256.884 213.279C260.459 212.129 263.032 210.691 264.605 208.966C266.321 207.097 267.179 204.94 267.179 202.496C267.179 199.045 265.606 196.314 262.461 194.301C259.315 192.288 255.24 190.635 250.236 189.341C245.232 188.047 239.656 186.753 233.507 185.459C227.502 184.165 221.426 182.511 215.278 180.499C209.273 178.486 203.768 175.898 198.764 172.735C193.76 169.428 189.685 165.187 186.539 160.011C183.394 154.691 181.821 148.006 181.821 139.955C181.821 130.897 184.251 122.702 189.113 115.37C194.117 108.037 201.552 102.142 211.417 97.6854C221.283 93.2285 233.579 91 248.306 91C258.171 91 267.822 92.1502 277.259 94.4506C286.838 96.6071 295.346 99.842 302.78 104.155L289.698 135.857C282.549 131.975 275.472 129.1 268.466 127.231C261.46 125.218 254.668 124.212 248.091 124.212C242.229 124.212 237.511 124.859 233.936 126.152C230.362 127.303 227.788 128.884 226.216 130.897C224.643 132.91 223.856 135.21 223.856 137.798C223.856 141.105 225.358 143.765 228.36 145.777C231.506 147.647 235.581 149.228 240.585 150.522C245.732 151.672 251.308 152.894 257.313 154.188C263.461 155.482 269.538 157.136 275.543 159.148C281.691 161.017 287.267 163.605 292.272 166.912C297.276 170.075 301.279 174.316 304.282 179.636C307.427 184.812 309 191.353 309 199.261C309 208.031 306.498 216.154 301.494 223.63C296.632 230.963 289.269 236.858 279.404 241.315C269.681 245.772 257.385 248 242.515 248Z" fill="#2E2E2F"/>
</svg>
